# xmcd
#
# Track frame offsets: 
#        150
#        17637
#        36125
#        54955
#
# Disc length: 1107 seconds
#
# Revision: 4
# Processed by: cddbd v1.5.2PL0 Copyright (c) Steve Scherf et al.
# Submitted via: ExactAudioCopy v1.3
#
DISCID=25045104
DTITLE=Aqualung - Strange And Beautiful (I'll Put A Spell On You) [CDS
DTITLE=2)
DYEAR=2002
DGENRE=Ambient
TTITLE0=Strange And Beautiful (I'll Put A Spell On You)
TTITLE1=Strange And Beautiful (I'll Put A Spell On You) (Cassan Vae)
TTITLE2=Strange And Beautiful (I'll Put A Spell On You) (Secretly Fall
TTITLE2=ing Apart Mix)
TTITLE3=Strange And Beautiful (I'll Put A Spell On You) (Aqualung - Lo
TTITLE3=op Theory Remix)
EXTD=YEAR: 2002 ID3G: 26
EXTT0=
EXTT1=
EXTT2=
EXTT3=
PLAYORDER=
